<svg width="110" height="110" viewBox="0 0 110 110" version="1.1" xmlns="http://www.w3.org/2000/svg" xmlns:xlink="http://www.w3.org/1999/xlink">
<title>Digital_icon</title>
<desc>Created using Figma</desc>
<g id="Canvas" transform="translate(-980 -1708)">
<g id="Digital_icon">
<g id="Group">
<g id="Vector">
<use xlink:href="#path0_fill" transform="translate(1025.55 1741.69)"/>
</g>
<g id="Vector">
<use xlink:href="#path1_fill" transform="translate(980 1708)"/>
</g>
<g id="Vector">
<use xlink:href="#path2_fill" transform="translate(1001.83 1729.83)"/>
</g>
</g>
</g>
</g>
<defs>
<path id="path0_fill" d="M 14.2656 10.3125C 15.4687 11.3438 16.1563 12.7187 16.1563 14.2656L 18.9062 14.2656C 18.9062 12.0312 17.875 9.96875 16.1563 8.42188C 14.7813 7.21875 12.8906 6.35938 10.8281 6.1875L 10.8281 6.55651e-07L 8.25 6.55651e-07L 8.25 6.1875C 6.1875 6.35938 4.46875 7.21875 2.92188 8.42188C 1.03125 9.96875 0.171876 12.0312 0.171876 14.2656C 0.171876 16.5 1.20313 18.5625 2.92188 20.1094C 4.64063 21.6562 7.04688 22.5156 9.45312 22.5156C 11.3438 22.5156 13.0625 23.2031 14.2656 24.2344C 15.4687 25.2656 16.1563 26.6406 16.1563 28.1875C 16.1563 29.7344 15.4687 31.1094 14.2656 32.1406C 11.6875 34.375 7.04688 34.375 4.46875 32.1406C 3.26563 31.1094 2.57812 29.7344 2.57812 28.1875L 0 28.1875C 0 30.4219 1.03125 32.4844 2.75 34.0312C 4.125 35.2344 6.01563 36.0938 8.07813 36.2656L 8.07813 42.4531L 10.6563 42.4531L 10.6563 36.2656C 12.7188 36.0938 14.4375 35.2344 15.9844 34.0312C 17.875 32.4844 18.7344 30.4219 18.7344 28.1875C 18.7344 25.9531 17.7031 23.8906 15.9844 22.3437C 14.2656 20.7969 11.8594 19.9375 9.45312 19.9375C 7.5625 19.9375 5.84375 19.25 4.64063 18.2188C 3.4375 17.1875 2.75 15.8125 2.75 14.2656C 2.75 12.7187 3.4375 11.3438 4.64063 10.3125C 7.21875 8.07813 11.6875 8.07813 14.2656 10.3125Z"/>
<path id="path1_fill" d="M 110 29.2188L 110 26.6406L 100.031 26.6406L 100.031 20.625L 89.375 9.96875L 83.3594 9.96875L 83.3594 0L 80.7812 0L 80.7812 9.96875L 74.4219 9.96875L 74.4219 0L 71.8438 0L 71.8438 9.96875L 65.4844 9.96875L 65.4844 0L 62.7344 0L 62.7344 9.96875L 56.375 9.96875L 56.375 0L 53.7969 0L 53.7969 9.96875L 47.2656 9.96875L 47.2656 0L 44.6875 0L 44.6875 9.96875L 38.3281 9.96875L 38.3281 0L 35.75 0L 35.75 9.96875L 29.3906 9.96875L 29.3906 0L 26.6406 0L 26.6406 9.96875L 20.625 9.96875L 9.96875 20.625L 9.96875 26.6406L 0 26.6406L 0 29.2188L 9.96875 29.2188L 9.96875 35.5781L 0 35.5781L 0 38.1562L 9.96875 38.1562L 9.96875 44.5156L 0 44.5156L 0 47.2656L 9.96875 47.2656L 9.96875 53.625L 0 53.625L 0 56.2031L 9.96875 56.2031L 9.96875 62.7344L 0 62.7344L 0 65.3125L 9.96875 65.3125L 9.96875 71.6719L 0 71.6719L 0 74.25L 9.96875 74.25L 9.96875 80.6094L 0 80.6094L 0 83.3594L 9.96875 83.3594L 9.96875 89.375L 20.625 100.031L 26.6406 100.031L 26.6406 110L 29.2188 110L 29.2188 100.031L 35.5781 100.031L 35.5781 110L 38.1562 110L 38.1562 100.031L 44.5156 100.031L 44.5156 110L 47.2656 110L 47.2656 100.031L 53.625 100.031L 53.625 110L 56.2031 110L 56.2031 100.031L 62.7344 100.031L 62.7344 110L 65.3125 110L 65.3125 100.031L 71.6719 100.031L 71.6719 110L 74.25 110L 74.25 100.031L 80.6094 100.031L 80.6094 110L 83.3594 110L 83.3594 100.031L 89.375 100.031L 100.031 89.375L 100.031 83.3594L 110 83.3594L 110 80.7812L 100.031 80.7812L 100.031 74.4219L 110 74.4219L 110 71.8438L 100.031 71.8438L 100.031 65.4844L 110 65.4844L 110 62.7344L 100.031 62.7344L 100.031 56.375L 110 56.375L 110 53.7969L 100.031 53.7969L 100.031 47.2656L 110 47.2656L 110 44.6875L 100.031 44.6875L 100.031 38.3281L 110 38.3281L 110 35.75L 100.031 35.75L 100.031 29.3906L 110 29.3906L 110 29.2188ZM 97.4531 88.3438L 88.3438 97.4531L 21.6562 97.4531L 12.5469 88.3438L 12.5469 21.6562L 21.6562 12.5469L 88.3438 12.5469L 97.4531 21.6562L 97.4531 88.3438Z"/>
<path id="path2_fill" d="M 55.8594 1.375L 55.8594 -3.27826e-07L 10.4844 -3.27826e-07L 10.4844 1.375C 10.4844 6.35938 6.35938 10.3125 1.375 10.3125L -3.27826e-07 10.3125L -3.27826e-07 55.8594L 1.375 55.8594C 6.35938 55.8594 10.4844 59.9844 10.4844 64.9688L 10.4844 66.3438L 56.0312 66.3438L 56.0312 64.9688C 56.0312 59.9844 60.1562 55.8594 65.1406 55.8594L 66.5156 55.8594L 66.5156 10.4844L 64.9688 10.4844C 59.9844 10.4844 55.8594 6.35938 55.8594 1.375ZM 63.5938 53.4531C 58.2656 53.9688 53.9688 58.2656 53.2812 63.7656L 12.8906 63.7656C 12.375 58.4375 8.07812 54.1406 2.57812 53.4531L 2.57812 12.8906C 7.90625 12.375 12.2031 8.07812 12.8906 2.57812L 53.4531 2.57812C 53.9687 7.90625 58.2656 12.2031 63.7656 12.8906L 63.7656 53.4531L 63.5938 53.4531Z"/>
</defs>
</svg>
