<svg xmlns="http://www.w3.org/2000/svg" xmlns:xlink="http://www.w3.org/1999/xlink" version="1.1" x="0px" y="0px" viewBox="0 0 65 81.25" enable-background="new 0 0 65 65" xml:space="preserve"><g><path d="M35.3,26.1c0.7,0.6,1.1,1.4,1.1,2.3H38c0-1.3-0.6-2.5-1.6-3.4c-0.8-0.7-1.9-1.2-3.1-1.3v-3.6h-1.5v3.6   c-1.2,0.1-2.2,0.6-3.1,1.3c-1.1,0.9-1.6,2.1-1.6,3.4c0,1.3,0.6,2.5,1.6,3.4c1,0.9,2.4,1.4,3.8,1.4c1.1,0,2.1,0.4,2.8,1   c0.7,0.6,1.1,1.4,1.1,2.3c0,0.9-0.4,1.7-1.1,2.3c-1.5,1.3-4.2,1.3-5.7,0c-0.7-0.6-1.1-1.4-1.1-2.3H27c0,1.3,0.6,2.5,1.6,3.4   c0.8,0.7,1.9,1.2,3.1,1.3v3.6h1.5v-3.6c1.2-0.1,2.2-0.6,3.1-1.3c1.1-0.9,1.6-2.1,1.6-3.4c0-1.3-0.6-2.5-1.6-3.4   c-1-0.9-2.4-1.4-3.8-1.4c-1.1,0-2.1-0.4-2.8-1c-0.7-0.6-1.1-1.4-1.1-2.3c0-0.9,0.4-1.7,1.1-2.3C31.2,24.8,33.8,24.8,35.3,26.1z"/><path d="M64.5,17.5V16h-5.8v-3.5l-6.2-6.2H49V0.5h-1.5v5.8h-3.7V0.5h-1.5v5.8h-3.7V0.5H37v5.8h-3.7V0.5h-1.5v5.8H28V0.5h-1.5v5.8   h-3.7V0.5h-1.5v5.8h-3.7V0.5H16v5.8h-3.5l-6.2,6.2V16H0.5v1.5h5.8v3.7H0.5v1.5h5.8v3.7H0.5V28h5.8v3.7H0.5v1.5h5.8V37H0.5v1.5h5.8   v3.7H0.5v1.5h5.8v3.7H0.5V49h5.8v3.5l6.2,6.2H16v5.8h1.5v-5.8h3.7v5.8h1.5v-5.8h3.7v5.8H28v-5.8h3.7v5.8h1.5v-5.8H37v5.8h1.5v-5.8   h3.7v5.8h1.5v-5.8h3.7v5.8H49v-5.8h3.5l6.2-6.2V49h5.8v-1.5h-5.8v-3.7h5.8v-1.5h-5.8v-3.7h5.8V37h-5.8v-3.7h5.8v-1.5h-5.8V28h5.8   v-1.5h-5.8v-3.7h5.8v-1.5h-5.8v-3.7H64.5z M57.2,51.9l-5.3,5.3H13.1l-5.3-5.3V13.1l5.3-5.3h38.8l5.3,5.3V51.9z"/><path d="M45.7,14v-0.8H19.3V14c0,2.9-2.4,5.2-5.3,5.2h-0.8v26.5H14c2.9,0,5.3,2.4,5.3,5.3v0.8h26.5V51c0-2.9,2.4-5.3,5.3-5.3h0.8   V19.3H51C48.1,19.3,45.7,16.9,45.7,14z M50.2,44.3c-3.1,0.3-5.6,2.8-6,6H20.7c-0.3-3.1-2.8-5.6-6-6V20.7c3.1-0.3,5.6-2.8,6-6h23.6   c0.3,3.1,2.8,5.6,6,6V44.3z"/></g><text x="0" y="80" fill="#000000" font-size="5px" font-weight="bold" font-family="'Helvetica Neue', Helvetica, Arial-Unicode, Arial, Sans-serif">Created by Creative Stall</text><text x="0" y="85" fill="#000000" font-size="5px" font-weight="bold" font-family="'Helvetica Neue', Helvetica, Arial-Unicode, Arial, Sans-serif">from the Noun Project</text></svg>