<svg xmlns="http://www.w3.org/2000/svg" xmlns:xlink="http://www.w3.org/1999/xlink" version="1.1" x="0px" y="0px" viewBox="0 0 100 125" enable-background="new 0 0 100 100" xml:space="preserve"><path d="M84.292,21.229H15.708c-5.238,0-9.5,4.262-9.5,9.5v38.543c0,5.238,4.262,9.5,9.5,9.5h68.584c5.238,0,9.5-4.262,9.5-9.5  V30.729C93.792,25.49,89.53,21.229,84.292,21.229z M15.708,26.229h68.584c2.481,0,4.5,2.019,4.5,4.5v2.644l-1.126-1.375L50,62.837  l-37.666-30.84l-1.126,1.375v-2.644C11.208,28.247,13.227,26.229,15.708,26.229z M84.292,73.771H15.708c-2.481,0-4.5-2.019-4.5-4.5  V37.538L50,69.3l38.792-31.762v31.733C88.792,71.753,86.773,73.771,84.292,73.771z"/><text x="0" y="115" fill="#000000" font-size="5px" font-weight="bold" font-family="'Helvetica Neue', Helvetica, Arial-Unicode, Arial, Sans-serif">Created by Kidiladon</text><text x="0" y="120" fill="#000000" font-size="5px" font-weight="bold" font-family="'Helvetica Neue', Helvetica, Arial-Unicode, Arial, Sans-serif">from the Noun Project</text></svg>