<svg width="90" height="90" viewBox="0 0 90 90" version="1.1" xmlns="http://www.w3.org/2000/svg" xmlns:xlink="http://www.w3.org/1999/xlink">
<title>Strategy_icon</title>
<desc>Created using Figma</desc>
<g id="Canvas" transform="translate(-153 -1788)">
<g id="Strategy_icon">
<g id="Group">
<g id="Vector">
<use xlink:href="#path0_fill" transform="translate(153 1788)"/>
</g>
</g>
</g>
</g>
<defs>
<path id="path0_fill" d="M 41.7909 0.00743433C 40.4344 -0.0325657 39.1251 0.0884403 37.8779 0.39104C 36.5863 0.70464 35.3839 1.23341 34.2811 1.96331C 32.9642 1.83211 31.6533 1.92532 30.3647 2.24932C 25.3863 3.50302 20.9046 7.78041 17.067 13.5651C 16.7391 14.0595 16.4445 14.6254 16.1262 15.1419C 15.5972 15.4394 15.0196 15.711 14.5124 16.0189C 8.56938 19.6264 4.1136 23.9307 2.67208 28.842C 2.29882 30.1137 2.15807 31.4156 2.24105 32.7325C 1.46827 33.8037 0.892834 34.9804 0.530443 36.2551C -0.869268 41.1784 0.60691 47.1849 3.71532 53.3893C 3.98103 53.9196 4.32592 54.4566 4.61564 54.9897C 4.60961 55.5949 4.55663 56.2292 4.57068 56.821C 4.73418 63.7536 6.24735 69.7508 9.79477 73.4505C 10.7133 74.4085 11.7734 75.1829 12.9594 75.7697C 13.5039 76.9717 14.2401 78.0555 15.1663 79.0052C 18.745 82.6749 24.7029 84.4039 31.6489 84.8234C 32.242 84.8594 32.8803 84.8335 33.4878 84.8475C 34.0115 85.1557 34.537 85.5187 35.0588 85.8029C 41.1653 89.1281 47.1343 90.8198 52.1232 89.6082C 53.4148 89.2945 54.6161 88.7667 55.7189 88.0369C 57.0362 88.1682 58.3474 88.0739 59.6364 87.7498C 64.6149 86.4961 69.0965 82.2198 72.9341 76.4351C 73.2621 75.9407 73.5566 75.3747 73.8749 74.8583C 74.4039 74.5608 74.9815 74.2893 75.4887 73.9814C 81.4318 70.3739 85.8864 66.0695 87.3279 61.1581C 87.7012 59.8864 87.843 58.5846 87.7601 57.2677C 88.5329 56.1965 89.1072 55.0188 89.4696 53.7441C 90.8693 48.8207 89.3931 42.814 86.2847 36.6099C 86.0193 36.0802 85.6748 35.5441 85.3855 35.0116C 85.3915 34.4057 85.4445 33.7704 85.4305 33.1781C 85.267 26.2455 83.7539 20.2484 80.2064 16.5487C 79.288 15.5908 78.2276 14.8185 77.0418 14.2317C 76.4973 13.0289 75.7616 11.9442 74.8349 10.9939C 71.2562 7.32428 65.2983 5.59509 58.3523 5.17559C 57.7589 5.13959 57.1201 5.1656 56.5123 5.1516C 55.9891 4.8437 55.4638 4.48109 54.9424 4.19719C 50.3625 1.70329 45.8606 0.128012 41.791 0.00731226L 41.7909 0.00743433ZM 41.7391 2.0205C 44.8816 2.1297 48.5141 3.29392 52.301 5.15392C 49.1694 5.28172 45.922 5.63962 42.6451 6.18352C 40.9218 4.56702 39.1592 3.42383 37.385 2.73833C 37.7161 2.62173 38.0063 2.41872 38.3528 2.33452C 39.4011 2.07992 40.536 1.9787 41.7391 2.0205ZM 34.7977 4.03362C 36.5566 4.32302 38.3406 5.17014 40.1523 6.63774C 38.6602 6.92914 37.1665 7.22413 35.6834 7.59093C 34.2006 7.95773 32.7417 8.39269 31.2864 8.83019C 32.1994 6.68869 33.3785 5.10892 34.7977 4.03362ZM 31.9031 4.09362C 30.6563 5.52642 29.6339 7.35791 28.8691 9.59001C 25.7167 10.6364 22.6785 11.8334 19.8501 13.1799C 23.2724 8.46572 27.0778 5.13939 30.8565 4.18779C 31.2029 4.10079 31.5551 4.1448 31.9031 4.0938L 31.9031 4.09362ZM 53.0314 7.1071C 54.0317 7.0761 54.9717 7.12612 55.9371 7.14312C 59.075 9.03022 62.2356 11.3411 65.3162 13.9741C 64.7907 14.1336 64.2757 14.2713 63.7305 14.472C 60.271 15.7455 56.3332 17.9143 51.9487 20.9475C 49.8538 16.0555 47.6763 12.1328 45.4259 9.22124C 45.0712 8.76224 44.7089 8.37202 44.3489 7.95842C 47.3053 7.51832 50.2349 7.19493 53.0314 7.10723L 53.0314 7.1071ZM 60.0775 7.38524C 65.8852 7.98164 70.6792 9.60181 73.3954 12.387C 73.6442 12.6421 73.7813 12.9683 73.9998 13.2427C 72.1314 12.8832 70.0285 12.9169 67.7065 13.3728C 65.2213 11.1757 62.6616 9.15284 60.0775 7.38524L 60.0775 7.38524ZM 41.8573 8.31829C 42.5156 8.99619 43.1694 9.57913 43.8357 10.4413C 46.0125 13.2577 48.1793 17.1412 50.2831 22.1305C 47.4565 24.1821 44.3844 26.7135 41.1539 29.5559C 36.9643 28.5486 33.0608 27.7431 29.5994 27.2468C 29.118 21.856 29.2118 17.4129 29.8144 13.9089C 29.9988 12.8368 30.3037 12.0176 30.5673 11.1119C 32.4047 10.5282 34.2784 9.99893 36.1673 9.53173C 38.0559 9.06463 39.9595 8.65839 41.8573 8.31829L 41.8573 8.31829ZM 28.1961 11.9541C 28.072 12.4872 27.9341 13.0008 27.836 13.5713C 27.2129 17.1937 27.129 21.6761 27.5726 26.9765C 22.2739 26.3385 17.7752 26.2569 14.1196 26.7432C 13.5435 26.8202 13.0238 26.9377 12.4844 27.0415C 13.972 23.2789 15.682 19.7632 17.5701 16.633C 20.7789 14.8686 24.3679 13.2963 28.1961 11.9541L 28.1961 11.9541ZM 73.0623 15.0203C 73.9498 15.143 74.746 15.3961 75.4999 15.7111C 76.1277 17.3736 76.2835 19.3368 75.9141 21.6337C 74.9149 20.4919 73.9121 19.3511 72.8519 18.2547C 71.7914 17.158 70.683 16.1162 69.5747 15.0786C 70.83 14.9253 72.014 14.8753 73.0623 15.0206L 73.0623 15.0203ZM 67.2327 15.599C 68.6589 16.8929 70.0551 18.2453 71.4057 19.642C 72.756 21.0383 74.0608 22.4796 75.3052 23.9474C 75.0453 24.8541 74.867 25.7094 74.451 26.7152C 73.0918 30.0021 70.7994 33.8136 67.5152 38.1241C 64.319 36.7105 60.5831 35.3245 56.4976 33.9578C 55.2782 29.8385 54.0268 26.0668 52.7275 22.8315C 57.1717 19.7205 61.0796 17.58 64.426 16.3481C 65.4497 15.9713 66.3141 15.8243 67.2327 15.599ZM 77.9195 17.2958C 78.1866 17.5234 78.5081 17.6724 78.7546 17.9294C 81.4471 20.7375 82.8945 25.5714 83.2775 31.3772C 81.6007 28.7383 79.6663 26.1145 77.5549 23.5582C 78.0982 21.2624 78.211 19.17 77.9195 17.2958L 77.9195 17.2958ZM 14.0228 18.7762C 12.5679 21.5428 11.2554 24.5233 10.0895 27.6236C 7.82322 28.3026 5.94873 29.2535 4.46594 30.4419C 4.53027 30.0974 4.49845 29.7449 4.59874 29.4034C 5.69279 25.6759 9.1692 22.0095 14.0228 18.7762ZM 51.0417 24.0875C 52.1192 26.8104 53.1735 29.8556 54.204 33.2254C 52.4316 32.6598 50.83 32.0846 48.8921 31.5286C 46.954 30.9726 45.29 30.6116 43.4869 30.1514C 46.1579 27.8433 48.676 25.8227 51.0417 24.0875L 51.0417 24.0875ZM 76.865 25.9167C 79.3912 29.082 81.5914 32.3153 83.3676 35.5099C 83.2964 39.1615 82.8685 43.0447 82.1206 47.0198C 81.7193 46.646 81.342 46.2705 80.8951 45.9004C 78.0585 43.5515 74.205 41.2371 69.3766 38.9697C 72.5805 34.7158 74.9017 30.8747 76.3068 27.4767C 76.5282 26.9414 76.6857 26.4339 76.865 25.9167L 76.865 25.9167ZM 20.5726 28.4243C 22.7354 28.4683 25.16 28.6765 27.7684 29.0053C 28.138 32.4704 28.8018 36.3876 29.6568 40.597C 26.6867 43.709 24.0344 46.6751 21.8725 49.4142C 16.9464 47.1341 13.1329 44.8317 10.3889 42.5596C 9.54907 41.8641 8.98934 41.1911 8.33393 40.5105C 8.74527 38.6333 9.2226 36.7519 9.76094 34.8885C 10.2993 33.0251 10.8993 31.1798 11.5526 29.372C 12.4705 29.143 13.3032 28.8688 14.3852 28.7249C 16.2095 28.4822 18.2678 28.3769 20.5726 28.4243L 20.5726 28.4243ZM 29.8482 29.3294C 32.7534 29.7609 35.9273 30.3741 39.3713 31.1697C 37.9934 32.4167 36.6922 33.5109 35.2399 34.9054C 33.7877 36.3 32.6419 37.5551 31.3404 38.8811C 30.6701 35.4218 30.1733 32.2385 29.8482 29.3294L 29.8482 29.3294ZM 9.23763 30.0023C 8.74494 31.4355 8.25473 32.8725 7.83201 34.3357C 7.40927 35.799 7.05861 37.276 6.71111 38.751C 5.30623 36.8923 4.52336 35.0844 4.29825 33.3219C 5.42926 31.9487 7.05644 30.832 9.23763 30.0023ZM 41.7031 31.763C 43.8761 32.2985 45.9539 32.7671 48.3373 33.4509C 50.7202 34.1345 52.7288 34.838 54.8545 35.5357C 55.4755 37.6786 56.1072 39.7056 56.7047 42.1042C 57.3021 44.5029 57.6953 46.5888 58.1519 48.7726C 56.6001 50.3801 55.1548 51.9385 53.369 53.6534C 51.5833 55.3681 49.9672 56.7501 48.2979 58.2358C 46.1249 57.7002 44.0472 57.2318 41.6637 56.548C 39.2805 55.8643 37.2714 55.1609 35.1454 54.4631C 34.5243 52.32 33.8927 50.2933 33.2953 47.8945C 32.6979 45.4959 32.3057 43.4096 31.8491 41.2261C 33.4009 39.6187 34.8463 38.0603 36.6321 36.3454C 38.4177 34.6307 40.0339 33.2487 41.7031 31.763L 41.7031 31.763ZM 2.90277 35.8497C 3.52445 37.6421 4.60571 39.4399 6.16304 41.2161C 5.49618 44.4594 5.01721 47.6795 4.77318 50.7936C 2.38801 45.4835 1.39932 40.536 2.46161 36.7995C 2.55895 36.4571 2.77341 36.1756 2.90277 35.8497ZM 57.1481 36.2692C 60.4895 37.4203 63.5044 38.5829 66.1951 39.7569C 64.3676 42.0483 62.2477 44.4812 59.8344 47.0555C 59.4397 45.2429 59.1385 43.5725 58.6527 41.6219C 58.1669 39.6715 57.6497 38.0553 57.1481 36.2692L 57.1481 36.2692ZM 85.2279 39.2052C 87.613 44.5152 88.6017 49.4616 87.5394 53.198C 87.442 53.5406 87.2277 53.8231 87.0983 54.1492C 86.4766 52.3564 85.3957 50.5582 83.838 48.7817C 84.5047 45.5385 84.9838 42.3189 85.2279 39.2052L 85.2279 39.2052ZM 68.1286 40.5846C 73.054 42.8644 76.8684 45.166 79.6121 47.438C 80.4516 48.1332 81.0108 48.8068 81.666 49.487C 81.2546 51.3643 80.7784 53.2456 80.2401 55.1091C 79.7018 56.9724 79.1028 58.8191 78.4496 60.6268C 77.5312 60.856 76.6984 61.1287 75.6158 61.2728C 72.0798 61.7432 67.6207 61.6726 62.2326 60.9935C 61.8631 57.5283 61.1992 53.611 60.3442 49.4018C 63.3143 46.2897 65.9666 43.3235 68.1286 40.5846ZM 30.1667 42.943C 30.5613 44.7555 30.8625 46.4252 31.3483 48.3757C 31.8342 50.3267 32.3524 51.9432 32.8541 53.7297C 29.5131 52.5788 26.4976 51.4157 23.807 50.2419C 25.6344 47.9506 27.7535 45.5172 30.1667 42.943ZM 7.8804 42.978C 8.28179 43.3518 8.65893 43.7282 9.10596 44.0984C 11.9426 46.4473 15.7961 48.7619 20.6244 51.0293C 17.4205 55.2832 15.0994 59.1232 13.6942 62.5212C 13.4727 63.0568 13.3154 63.5648 13.136 64.0823C 10.6097 60.9169 8.40978 57.6839 6.63345 54.4891C 6.7046 50.8371 7.13246 46.9535 7.8804 42.978L 7.8804 42.978ZM 58.6606 51.118C 59.3309 54.577 59.8278 57.7607 60.1529 60.6697C 57.2477 60.2382 54.0737 59.6249 50.6298 58.8293C 52.0077 57.5824 53.3089 56.4881 54.7611 55.0936C 56.2133 53.699 57.3591 52.444 58.6606 51.118L 58.6606 51.118ZM 83.2899 51.248C 84.6945 53.1063 85.4775 54.9139 85.7028 56.6761C 84.572 58.0494 82.9444 59.1659 80.7634 59.9957C 81.2559 58.5628 81.7453 57.1261 82.1679 55.6633C 82.5906 54.2 82.9424 52.723 83.2899 51.248L 83.2899 51.248ZM 22.4858 51.8749C 25.682 53.2885 29.418 54.6734 33.5035 56.0401C 34.7229 60.1595 35.9742 63.9322 37.2735 67.1675C 32.8294 70.2784 28.9215 72.4178 25.575 73.6497C 24.5509 74.0267 23.6862 74.1736 22.7672 74.399C 21.3414 73.1053 19.9444 71.7535 18.5942 70.3571C 17.2438 68.9606 15.9393 67.5196 14.6947 66.0516C 14.9547 65.1449 15.1341 64.2897 15.55 63.2839C 16.9092 59.997 19.2016 56.1854 22.4858 51.8749ZM 35.797 56.7737C 37.5694 57.3393 39.1711 57.9144 41.1089 58.4704C 43.0473 59.0265 44.7107 59.3884 46.5142 59.8487C 43.8434 62.1566 41.3248 64.1764 38.9594 65.9114C 37.8819 63.1887 36.8275 60.1432 35.797 56.7737ZM 6.72349 58.623C 8.40029 61.2617 10.3338 63.8847 12.445 66.4408C 11.9021 68.7358 11.7902 70.8285 12.0815 72.7022C 11.8145 72.4746 11.4929 72.3255 11.2465 72.0684C 8.55433 69.2607 7.10674 64.4278 6.72349 58.623L 6.72349 58.623ZM 85.5362 59.556C 85.4719 59.9009 85.5027 60.2537 85.4023 60.5956C 84.3083 64.3228 80.8313 67.9885 75.9782 71.2217C 77.4331 68.455 78.7456 65.4746 79.9115 62.3743C 82.1786 61.695 84.0532 60.745 85.5362 59.556L 85.5362 59.556ZM 48.8471 60.4432C 53.0365 61.4504 56.9404 62.2559 60.4016 62.7522C 60.8831 68.143 60.7893 72.5861 60.1866 76.0901C 60.0022 77.1622 59.6974 77.9814 59.4337 78.8871C 57.5963 79.4708 55.7227 79.9989 53.8338 80.4661C 51.9448 80.9334 50.0408 81.3394 48.1426 81.6796C 47.4847 81.0019 46.8313 80.4195 46.1653 79.5578C 43.9885 76.7413 41.8207 72.8581 39.7168 67.8685C 42.5434 65.817 45.6166 63.2857 48.8471 60.4432L 48.8471 60.4432ZM 77.5166 62.9574C 76.0289 66.7204 74.3192 70.2356 72.431 73.366C 69.222 75.1304 65.6334 76.7027 61.805 78.0448C 61.9291 77.5116 62.0669 76.9985 62.1651 76.4277C 62.7881 72.8054 62.8721 68.3229 62.4284 63.0226C 67.7272 63.6606 72.2259 63.7421 75.8814 63.2558C 76.4576 63.1788 76.9772 63.0613 77.5166 62.9574ZM 14.0858 68.3642C 15.0851 69.5061 16.0889 70.6478 17.1492 71.7443C 18.2093 72.8406 19.3173 73.882 20.4252 74.9192C 18.1083 75.2021 16.1461 74.9743 14.5022 74.2879C 13.8741 72.625 13.7162 70.662 14.0858 68.3642L 14.0858 68.3642ZM 38.0523 69.0517C 40.1472 73.9437 42.3247 77.8663 44.5751 80.778C 44.9297 81.2367 45.2923 81.6261 45.6521 82.0396C 41.6378 82.6372 37.7276 82.9205 34.0628 82.856C 30.9248 80.9688 27.7644 78.6571 24.6837 76.024C 25.2094 75.8645 25.7252 75.7267 26.2705 75.526C 29.7303 74.2524 33.6675 72.0852 38.0523 69.0517L 38.0523 69.0517ZM 22.2945 76.625C 24.7795 78.822 27.3385 80.8452 29.9224 82.6127C 24.115 82.0162 19.3217 80.396 16.6056 77.6109C 16.3566 77.3556 16.2187 77.0299 16.0001 76.7552C 17.869 77.115 19.9718 77.0811 22.2945 76.625L 22.2945 76.625ZM 70.1487 76.819C 66.7267 81.5324 62.9228 84.8586 59.1445 85.81C 58.7982 85.897 58.4459 85.8531 58.0979 85.9041C 59.3447 84.4714 60.3671 82.6397 61.132 80.4076C 64.2836 79.3615 67.3208 78.1651 70.1487 76.8189L 70.1487 76.819ZM 58.7157 81.1683C 57.8029 83.31 56.6224 84.8893 55.2034 85.9649C 53.4441 85.6754 51.6597 84.829 49.8476 83.3608C 51.3398 83.0693 52.8344 82.7743 54.3177 82.4074C 55.8008 82.0406 57.2601 81.6059 58.7157 81.1683L 58.7157 81.1683ZM 47.3548 83.815C 49.0786 85.432 50.8425 86.5747 52.6172 87.2602C 52.2853 87.3771 51.9944 87.5807 51.6471 87.6651C 47.8608 88.5846 42.9367 87.4175 37.7001 84.8455C 40.8315 84.7178 44.078 84.3589 47.3548 83.815Z"/>
</defs>
</svg>
