<svg xmlns:dc="http://purl.org/dc/elements/1.1/" xmlns:cc="http://creativecommons.org/ns#" xmlns:rdf="http://www.w3.org/1999/02/22-rdf-syntax-ns#" xmlns:svg="http://www.w3.org/2000/svg" xmlns="http://www.w3.org/2000/svg" xmlns:sodipodi="http://sodipodi.sourceforge.net/DTD/sodipodi-0.dtd" xmlns:inkscape="http://www.inkscape.org/namespaces/inkscape" viewBox="0 0 100 125" version="1.1" x="0px" y="0px"><g transform="translate(0,-952.36216)"><path style="color:#000000;font-style:normal;font-variant:normal;font-weight:normal;font-stretch:normal;font-size:medium;line-height:normal;font-family:sans-serif;text-indent:0;text-align:start;text-decoration:none;text-decoration-line:none;text-decoration-style:solid;text-decoration-color:#000000;letter-spacing:normal;word-spacing:normal;text-transform:none;direction:ltr;block-progression:tb;writing-mode:lr-tb;baseline-shift:baseline;text-anchor:start;white-space:normal;clip-rule:nonzero;display:inline;overflow:visible;visibility:visible;opacity:1;isolation:auto;mix-blend-mode:normal;color-interpolation:sRGB;color-interpolation-filters:linearRGB;solid-color:#000000;solid-opacity:1;fill:#000000;fill-opacity:1;fill-rule:nonzero;stroke:none;stroke-width:3.48315358;stroke-linecap:butt;stroke-linejoin:miter;stroke-miterlimit:4;stroke-dasharray:none;stroke-dashoffset:0;stroke-opacity:1;color-rendering:auto;image-rendering:auto;shape-rendering:auto;text-rendering:auto;enable-background:accumulate" d="m 46.802158,957.36967 c -1.35177,-0.04 -2.65642,0.081 -3.89927,0.3836 -1.28708,0.3136 -2.48525,0.8424 -3.58416,1.5723 -1.31234,-0.1312 -2.61856,-0.038 -3.90264,0.286 -4.961,1.2537 -9.42696,5.5311 -13.25105,11.3158 -0.32683,0.4944 -0.62032,1.0603 -0.93753,1.5768 -0.52712,0.2975 -1.10269,0.5691 -1.60816,0.877 -5.922161,3.6075 -10.3623006,7.9118 -11.7987706,12.8231 -0.37195,1.2717 -0.5122,2.57355 -0.42951,3.89045 -0.77007,1.0712 -1.34349,2.2479 -1.70461,3.5226 -1.3948,4.9233 0.0762,10.92978 3.1737,17.13418 0.26478,0.5303 0.60846,1.0673 0.89716,1.6004 -0.006,0.6052 -0.0588,1.2396 -0.0448,1.8314 0.16293,6.9326 1.6707896,12.9297 5.2057696,16.6294 0.915351,0.958 1.971731,1.7324 3.153511,2.3192 0.54258,1.202 1.2762,2.2858 2.19916,3.2355 3.5662,3.6697 9.50315,5.3988 16.42475,5.8183 0.59103,0.036 1.22714,0.01 1.83245,0.024 0.52185,0.3082 1.04551,0.6713 1.56554,0.9555 6.0851,3.3252 12.0331,5.0168 17.00454,3.8052 1.28705,-0.3137 2.48413,-0.8414 3.58303,-1.5712 1.3127,0.1313 2.61934,0.037 3.90377,-0.2871 4.961,-1.2537 9.42696,-5.53 13.25104,-11.3147 0.32683,-0.4944 0.62033,-1.0604 0.93753,-1.5768 0.52712,-0.2975 1.1027,-0.5691 1.60816,-0.877 5.92217,-3.6075 10.36119,-7.9118 11.79765,-12.8232 0.37195,-1.2717 0.51332,-2.5735 0.43064,-3.8904 0.77007,-1.0712 1.34236,-2.249 1.70348,-3.5237 1.39481,-4.9234 -0.0762,-10.93 -3.1737,-17.13418 -0.26446,-0.5297 -0.6077,-1.0657 -0.89604,-1.5982 0.006,-0.6059 0.0588,-1.2413 0.0449,-1.8336 -0.16293,-6.93255 -1.6708,-12.92965 -5.20577,-16.62935 -0.91525,-0.9579 -1.97189,-1.7302 -3.15351,-2.317 -0.54265,-1.2028 -1.27572,-2.2875 -2.19917,-3.2378 -3.56619,-3.6696 -9.50314,-5.3988 -16.42475,-5.8183 -0.59139,-0.036 -1.22788,-0.01 -1.83357,-0.024 -0.52141,-0.3079 -1.04482,-0.6705 -1.56442,-0.9544 -4.56382,-2.4939 -9.04994,-4.0692 -13.10526,-4.1899 z m -0.0516,2.0131 c 3.13144,0.1092 6.75117,1.2734 10.5248,3.1334 -3.12055,0.1278 -6.35659,0.4857 -9.62204,1.0296 -1.71722,-1.6165 -3.47366,-2.7597 -5.24165,-3.4452 0.32999,-0.1166 0.61918,-0.3196 0.96445,-0.4038 1.0446,-0.2546 2.17557,-0.3558 3.37444,-0.314 z m -6.91711,2.0131 c 1.75274,0.2894 3.53055,1.1365 5.33586,2.6041 -1.48686,0.2914 -2.97532,0.5864 -4.45327,0.9532 -1.47752,0.3668 -2.93133,0.8018 -4.38151,1.2393 0.90973,-2.1415 2.08477,-3.7213 3.49892,-4.7966 z m -2.88436,0.06 c -1.2425,1.4328 -2.26123,3.2643 -3.02343,5.4964 -3.14127,1.0464 -6.16881,2.2434 -8.98729,3.5899 3.41024,-4.7142 7.20234,-8.0405 10.96777,-8.9921 0.34512,-0.087 0.69617,-0.043 1.04295,-0.094 z m 21.05409,3.0135 c 0.9968,-0.031 1.93352,0.019 2.89558,0.036 3.12686,1.8871 6.27635,4.198 9.34616,6.831 -0.52367,0.1595 -1.03683,0.2972 -1.58012,0.4979 -3.44742,1.2735 -7.37133,3.4423 -11.74045,6.4755 -2.08755,-4.892 -4.25741,-8.8147 -6.49992,-11.7263 -0.35349,-0.459 -0.71446,-0.8492 -1.07323,-1.2628 2.94599,-0.4401 5.86535,-0.7635 8.65198,-0.8512 z m 7.0214,0.2781 c 5.78739,0.5964 10.56454,2.2166 13.27123,5.0018 0.24788,0.2551 0.38456,0.5813 0.60222,0.8557 -1.86182,-0.3595 -3.95734,-0.3258 -6.27115,0.1301 -2.47652,-2.1971 -5.0272,-4.22 -7.6023,-5.9876 z m -18.15627,0.9331 c 0.65596,0.6779 1.30747,1.2608 1.97151,2.123 2.16914,2.8164 4.32831,6.6999 6.42478,11.6892 -2.81668,2.0516 -5.87802,4.583 -9.0972,7.4254 -4.17487,-1.0073 -8.06474,-1.8128 -11.51392,-2.3091 -0.47977,-5.3908 -0.38633,-9.8339 0.2142,-13.3379 0.18375,-1.0721 0.48756,-1.8913 0.75025,-2.797 1.83096,-0.5837 3.69805,-1.113 5.58033,-1.5802 1.88202,-0.4671 3.7789,-0.8733 5.67005,-1.2134 z m -13.61328,3.6358 c -0.12361,0.5331 -0.26107,1.0467 -0.35886,1.6172 -0.62082,3.6224 -0.7045,8.1048 -0.26242,13.4052 -5.28015,-0.638 -9.76307,-0.7196 -13.4058,-0.2333 -0.57413,0.077 -1.09195,0.1945 -1.62947,0.2983 1.48237,-3.7626 3.18637,-7.2783 5.06783,-10.4085 3.19754,-1.7644 6.77394,-3.3367 10.58872,-4.6789 z m 44.70883,3.0662 c 0.8844,0.1227 1.67777,0.3758 2.42906,0.6908 0.62556,1.6625 0.7808,3.6257 0.41269,5.9226 -0.99568,-1.1418 -1.99497,-2.2826 -3.05146,-3.379 -1.05678,-1.0967 -2.16124,-2.1385 -3.26566,-3.1761 1.25094,-0.1533 2.43074,-0.2033 3.47537,-0.058 z m -5.80911,0.5787 c 1.42117,1.2939 2.81247,2.6463 4.15834,4.043 1.3455,1.3963 2.64571,2.8376 3.88582,4.3054 -0.25906,0.9067 -0.43673,1.762 -0.85118,2.7678 -1.35448,3.2869 -3.63881,7.09835 -6.9115,11.40885 -3.18496,-1.4136 -6.90783,-2.7996 -10.97899,-4.1663 -1.2151,-4.11925 -2.46207,-7.89095 -3.75685,-11.12625 4.42857,-3.111 8.32277,-5.2515 11.65747,-6.4834 1.02014,-0.3768 1.88142,-0.5238 2.79689,-0.7491 z m 10.64929,1.6968 c 0.26609,0.2276 0.58647,0.3766 0.83211,0.6336 2.68304,2.8081 4.12543,7.642 4.5071,13.44775 -1.671,-2.63885 -3.59861,-5.26265 -5.70257,-7.81895 0.54138,-2.2958 0.65385,-4.3882 0.36336,-6.2624 z m -63.67254,1.4804 c -1.44981,2.7666 -2.75768,5.7471 -3.91947,8.8474 -2.258381,0.679 -4.126291,1.6299 -5.6038806,2.8183 0.0641,-0.3445 0.0324,-0.697 0.13233,-1.0385 1.0902196,-3.7275 4.5544296,-7.3939 9.3910206,-10.6272 z m 36.88896,5.3113 c 1.07381,2.7229 2.12434,5.7681 3.15127,9.13785 -1.76622,-0.5656 -3.3622,-1.1408 -5.29324,-1.6968 -1.93134,-0.55595 -3.58947,-0.91695 -5.38632,-1.37715 2.66165,-2.3081 5.17097,-4.3287 7.52829,-6.0639 z m 25.73278,1.8292 c 2.51731,3.1653 4.70974,6.39855 6.47973,9.59315 -0.0709,3.6516 -0.49736,7.53478 -1.24256,11.50988 -0.39992,-0.3738 -0.77589,-0.7492 -1.22126,-1.1193 -2.82665,-2.3489 -6.66663,-4.66338 -11.47804,-6.93078 3.19263,-4.2539 5.50566,-8.09495 6.90589,-11.49295 0.22057,-0.5353 0.37751,-1.0428 0.55624,-1.56 z m -56.09491,2.5076 c 2.15518,0.044 4.57132,0.2522 7.17056,0.581 0.36825,3.46515 1.02979,7.38225 1.88179,11.59165 -2.95973,3.11198 -5.60268,6.07808 -7.75707,8.81718 -4.90883,-2.2801 -8.70893,-4.5824 -11.44327,-6.85458 -0.836891,-0.6955 -1.394661,-1.3684 -2.047771,-2.049 0.4099,-1.8772 0.88555,-3.7586 1.422,-5.622 0.536451,-1.8634 1.134361,-3.70875 1.785351,-5.51655 0.91472,-0.229 1.74451,-0.5032 2.82269,-0.6471 1.81786,-0.2427 3.86899,-0.348 6.16572,-0.3006 z m 9.24299,0.9051 c 2.89502,0.4315 6.05782,1.0447 9.48971,1.8403 -1.37307,1.24695 -2.66973,2.34115 -4.11684,3.73565 -1.44714,1.3946 -2.58894,2.6497 -3.88583,3.9757 -0.668,-3.4593 -1.16304,-6.6425 -1.48704,-9.55165 z m -20.538221,0.6729 c -0.49096,1.43315 -0.97945,2.87015 -1.40069,4.33335 -0.42126,1.4633 -0.77069,2.9403 -1.11697,4.4153 -1.39995,-1.8587 -2.1800696,-3.6666 -2.4043896,-5.4291 1.1270396,-1.3732 2.7485096,-2.48985 4.9220496,-3.31955 z m 32.351571,1.76065 c 2.1654,0.5355 4.23586,1.0041 6.61094,1.6879 2.37453,0.6836 4.37609,1.3871 6.49432,2.0848 0.61887,2.1429 1.24835,4.17 1.84366,6.5686 0.59535,2.39868 0.98722,4.48458 1.44218,6.66838 -1.54634,1.6075 -2.98661,3.1659 -4.76616,4.8808 -1.77937,1.7147 -3.38985,3.0967 -5.05325,4.5824 -2.16539,-0.5356 -4.23586,-1.0041 -6.61094,-1.6879 -2.3749,-0.6837 -4.37692,-1.387 -6.49543,-2.0848 -0.61892,-2.1431 -1.24832,-4.1698 -1.84367,-6.5686 -0.59528,-2.3986 -0.98613,-4.4849 -1.44106,-6.66848 1.54634,-1.6074 2.98662,-3.1658 4.76616,-4.8807 1.77937,-1.7147 3.38986,-3.0967 5.05325,-4.5824 z m -38.6642106,4.0867 c 0.6195,1.7924 1.69697,3.5902 3.2488396,5.3664 -0.66452,3.24338 -1.14181,6.46348 -1.3849896,9.57758 -2.3768,-5.3101 -3.36202,-10.25758 -2.30346,-13.99408 0.097,-0.3424 0.31071,-0.624 0.43961,-0.9499 z m 54.0549806,0.4195 c 3.32968,1.1511 6.33401,2.3138 9.01534,3.4878 -1.8211,2.2914 -3.9336,4.72428 -6.33844,7.29858 -0.39331,-1.8126 -0.69339,-3.483 -1.17752,-5.43358 -0.48409,-1.9504 -0.99952,-3.5667 -1.49938,-5.3528 z m 27.98129,2.936 c 2.3768,5.30998 3.36201,10.25648 2.30346,13.99288 -0.0971,0.3426 -0.3106,0.625 -0.43961,0.9511 -0.61951,-1.7928 -1.69659,-3.591 -3.24884,-5.3675 0.6644,-3.2432 1.14183,-6.46278 1.38499,-9.57648 z m -17.0393,1.3795 c 4.90813,2.27978 8.70919,4.58138 11.44327,6.85338 0.83652,0.6952 1.39374,1.3688 2.04664,2.049 -0.4099,1.8773 -0.88442,3.7586 -1.42088,5.6221 -0.53641,1.8633 -1.13328,3.71 -1.78422,5.5177 -0.91515,0.2292 -1.74503,0.5019 -2.82381,0.646 -3.52368,0.4704 -7.96708,0.3998 -13.33628,-0.2793 -0.36824,-3.4652 -1.02983,-7.3825 -1.88179,-11.5917 2.95973,-3.1121 5.60268,-6.0783 7.75707,-8.81718 z m -37.82873,2.35838 c 0.39328,1.8125 0.69344,3.4821 1.17752,5.4326 0.4842,1.951 1.00051,3.5675 1.5005,5.354 -3.32926,-1.1509 -6.33425,-2.314 -9.01534,-3.4878 1.821,-2.2913 3.93266,-4.7246 6.33732,-7.2988 z m -22.208071,0.035 c 0.39998,0.3738 0.7758,0.7502 1.22126,1.1204 2.826651,2.3489 6.666631,4.6635 11.478031,6.9309 -3.19266,4.2539 -5.50564,8.0939 -6.90589,11.4919 -0.22071,0.5356 -0.37742,1.0436 -0.55623,1.5611 -2.51749,-3.1654 -4.709651,-6.3984 -6.479741,-9.5932 0.0709,-3.652 0.49726,-7.5356 1.24257,-11.5111 z m 50.602041,8.1399 c 0.66793,3.459 1.16308,6.6427 1.48704,9.5517 -2.89501,-0.4315 -6.05781,-1.0448 -9.4897,-1.8404 1.37306,-1.2469 2.66973,-2.3411 4.11684,-3.7356 1.44713,-1.3946 2.58893,-2.6497 3.88582,-3.9757 z m 24.54292,0.1301 c 1.39966,1.8583 2.1799,3.6658 2.40439,5.428 -1.12685,1.3733 -2.74871,2.4898 -4.92204,3.3196 0.49081,-1.4329 0.97844,-2.8695 1.39957,-4.3323 0.42126,-1.4633 0.77181,-2.9403 1.11808,-4.4153 z m -60.59079,0.6269 c 3.18493,1.4136 6.90789,2.7985 10.97899,4.1652 1.21512,4.1194 2.46206,7.8921 3.75686,11.1274 -4.42856,3.1109 -8.32278,5.2503 -11.65747,6.4822 -1.02053,0.377 -1.88224,0.5238 -2.79802,0.7492 -1.42076,-1.2937 -2.81283,-2.6455 -4.15833,-4.0419 -1.34568,-1.3965 -2.64557,-2.8374 -3.88583,-4.3054 0.25907,-0.9067 0.43784,-1.762 0.85231,-2.7678 1.35447,-3.2869 3.63882,-7.0984 6.91149,-11.4089 z m 13.2645,4.8987 c 1.76618,0.5656 3.36226,1.1408 5.29325,1.6968 1.93163,0.5561 3.58921,0.918 5.38632,1.3783 -2.66146,2.3079 -5.17113,4.3277 -7.52829,6.0627 -1.07374,-2.7227 -2.12441,-5.7683 -3.15128,-9.1378 z m -28.971521,1.8493 c 1.67092,2.6387 3.597681,5.2618 5.701451,7.8179 -0.54103,2.295 -0.65253,4.3876 -0.36223,6.2613 -0.26603,-0.2276 -0.58652,-0.3766 -0.83211,-0.6337 -2.682691,-2.8077 -4.125201,-7.6407 -4.507111,-13.4455 z m 78.536221,0.9331 c -0.0641,0.3449 -0.0334,0.6977 -0.13345,1.0396 -1.09014,3.7272 -4.55497,7.3929 -9.39102,10.6261 1.44978,-2.7667 2.75772,-5.7471 3.91947,-8.8474 2.25919,-0.6793 4.12718,-1.6293 5.605,-2.8183 z m -36.56037,0.8871 c 4.17464,1.0072 8.06491,1.8128 11.51392,2.3091 0.47978,5.3908 0.38634,9.8339 -0.2142,13.3379 -0.18375,1.0721 -0.48755,1.8913 -0.75025,2.797 -1.83095,0.5837 -3.69804,1.1118 -5.58033,1.579 -1.88237,0.4673 -3.77966,0.8733 -5.67117,1.2135 -0.6556,-0.6777 -1.30671,-1.2602 -1.97038,-2.1219 -2.16921,-2.8165 -4.32938,-6.6997 -6.42591,-11.6893 2.81671,-2.0515 5.87911,-4.5828 9.09832,-7.4253 z m 28.56893,2.5143 c -1.4825,3.763 -3.18618,7.2782 -5.06784,10.4086 -3.19766,1.7644 -6.77374,3.3367 -10.58872,4.6788 0.12367,-0.5332 0.26104,-1.0464 0.35887,-1.6172 0.62081,-3.6223 0.70449,-8.1048 0.26241,-13.4051 5.28015,0.638 9.76308,0.7196 13.40581,0.2333 0.57412,-0.077 1.09195,-0.1945 1.62947,-0.2984 z m -63.20826,5.4067 c 0.99576,1.1419 1.99601,2.2837 3.05259,3.3802 1.05641,1.0963 2.16051,2.1377 3.26453,3.1749 -2.30882,0.2829 -4.26407,0.055 -5.90218,-0.6314 -0.62591,-1.6629 -0.78333,-3.6259 -0.41494,-5.9237 z m 23.88239,0.6875 c 2.08755,4.892 4.25741,8.8146 6.49992,11.7263 0.3533,0.4587 0.71464,0.8482 1.07323,1.2617 -4.00023,0.5976 -7.89676,0.8809 -11.54869,0.8164 -3.12699,-1.8872 -6.27624,-4.199 -9.34616,-6.8321 0.5238,-0.1595 1.03782,-0.2972 1.58125,-0.4979 3.44763,-1.2736 7.37099,-3.4409 11.74045,-6.4744 z m -15.70253,7.5734 c 2.47628,2.197 5.02631,4.2202 7.60118,5.9877 -5.78707,-0.5965 -10.56353,-2.2168 -13.27011,-5.0019 -0.24811,-0.2553 -0.38551,-0.581 -0.60334,-0.8557 1.86226,0.3598 3.95776,0.326 6.27227,-0.1301 z m 47.68627,0.194 c -3.40995,4.7134 -7.20054,8.0396 -10.96554,8.991 -0.34511,0.087 -0.69617,0.043 -1.04295,0.094 1.24243,-1.4327 2.26128,-3.2643 3.02343,-5.4964 3.14055,-1.0461 6.16713,-2.2426 8.98506,-3.5888 z m -11.39281,4.3492 c -0.90961,2.1417 -2.08596,3.721 -3.50004,4.7966 -1.75311,-0.2895 -3.53126,-1.1359 -5.33698,-2.6041 1.48695,-0.2915 2.97636,-0.5864 4.4544,-0.9533 1.47787,-0.3668 2.93211,-0.8016 4.38262,-1.2392 z m -11.32103,2.6467 c 1.71772,1.617 3.47538,2.7597 5.2439,3.4452 -0.33075,0.1169 -0.6206,0.3205 -0.96669,0.4049 -3.77303,0.9195 -8.6799,-0.2475 -13.89813,-2.8195 3.12049,-0.1277 6.35554,-0.4867 9.62092,-1.0306 z"/></g></svg>
