<svg width="73" height="110" viewBox="0 0 73 110" version="1.1" xmlns="http://www.w3.org/2000/svg" xmlns:xlink="http://www.w3.org/1999/xlink">
<title>Technology_icon</title>
<desc>Created using Figma</desc>
<g id="Canvas" transform="translate(-1607 -1224)">
<g id="Technology_icon">
<g id="Group">
<g id="Vector">
<use xlink:href="#path0_fill" transform="translate(1611.71 1224)"/>
</g>
<g id="Vector">
<use xlink:href="#path1_fill" transform="translate(1607 1234.57)"/>
</g>
</g>
</g>
</g>
<defs>
<path id="path0_fill" fill-rule="evenodd" d="M 18.1565 -8.27756e-06C 28.2673 -8.27756e-06 36.3501 8.78145 36.3501 19.3363C 36.3501 23.092 35.3086 26.5888 33.576 29.5456C 33.4117 29.8322 33.1922 30.0834 32.9302 30.2847C 32.6683 30.4859 32.3691 30.6333 32.0498 30.7182C 31.7306 30.8032 31.3977 30.824 31.0704 30.7796C 30.743 30.7351 30.4278 30.6262 30.1427 30.4592C 29.8577 30.2922 29.6086 30.0704 29.4099 29.8066C 29.2111 29.5428 29.0665 29.2421 28.9846 28.9221C 28.9027 28.6021 28.885 28.269 28.9325 27.9421C 28.9801 27.6152 29.0919 27.301 29.2616 27.0176C 30.5687 24.7871 31.3499 22.1697 31.3499 19.3363C 31.3499 11.3048 25.3634 4.99995 18.1565 4.99995C 10.9496 4.99995 4.99997 11.2982 4.99997 19.3363C 4.99997 22.1895 5.75158 24.801 7.05102 27.0172C 7.22372 27.3006 7.33827 27.6156 7.38798 27.9438C 7.43769 28.2719 7.42156 28.6067 7.34055 28.9286C 7.25953 29.2504 7.11524 29.5529 6.9161 29.8184C 6.71695 30.084 6.46694 30.3072 6.18063 30.4751C 5.89432 30.643 5.57745 30.7522 5.24849 30.7964C 4.91954 30.8405 4.58508 30.8188 4.26463 30.7323C 3.94418 30.6459 3.64414 30.4965 3.38202 30.2929C 3.11989 30.0893 2.90093 29.8355 2.7379 29.5464C 0.994144 26.5725 2.32883e-07 23.0727 2.32883e-07 19.3363C 2.32883e-07 8.78806 8.04566 -8.27756e-06 18.1565 -8.27756e-06Z"/>
<path id="path1_fill" fill-rule="evenodd" d="M 22.8968 0.000107511C 27.7361 0.000107511 32.0777 3.43486 32.0777 8.16534L 32.0777 34.1456C 33.5552 33.5022 35.1597 33.2272 36.7268 33.2471C 38.9446 33.2751 41.1535 33.841 42.9777 35.0833C 44.2156 35.9262 45.2697 37.2188 45.7906 38.7557C 47.1952 38.0415 48.7325 37.7143 50.2445 37.7008C 52.4843 37.681 54.7412 38.3387 56.4954 39.8496C 57.505 40.7194 58.2737 41.9157 58.7222 43.2877C 60.714 42.2431 62.9767 42.0738 65.0121 42.6234C 69.4832 43.8306 73.1424 48.4497 72.396 54.2266L 72.396 54.2653C 69.8114 74.397 67.5501 82.9115 64.1136 97.5137C 63.8537 98.592 62.8005 99.4243 61.6914 99.4281C 50.6021 99.3518 41.0474 99.3219 29.968 99.2327C 29.9418 99.2202 29.9155 99.2077 29.8905 99.194C 22.8628 98.9776 16.0385 93.2095 10.5519 83.6838C 5.06497 74.158 0.927753 60.5887 0.00337022 43.6782C -0.0341352 42.9738 0.243279 42.2587 0.745726 41.7638C 2.17868 40.3549 3.58188 39.3728 5.16036 38.9509C 5.65381 38.8191 6.18351 38.7575 6.68408 38.7556C 7.78524 38.7518 8.85602 39.0659 9.73139 39.576C 11.7316 40.7416 12.8711 42.5815 13.7945 44.5767C 13.8145 33.9515 13.717 21.5426 13.717 8.16527C 13.717 3.43479 18.0671 3.12057e-05 22.898 3.12057e-05L 22.8968 0.000107511ZM 22.8968 5.00083C 20.3833 5.00083 18.7164 6.641 18.7164 8.16534C 18.7164 26.6152 18.9401 43.3428 18.7164 55.9456C 18.6602 58.1514 14.0863 59.9684 12.3874 55.2034C 11.606 53.0094 10.8023 50.3679 9.88704 48.1321C 8.97178 45.8962 7.77848 44.2158 7.19128 43.8736C 6.89773 43.7026 6.8496 43.6884 6.44905 43.7961C 6.16213 43.8723 5.67556 44.1176 5.04259 44.6166C 6.05724 60.2911 10.0098 72.7153 14.8878 81.1842C 19.8841 89.8584 25.8763 94.0959 30.0462 94.2329C 40.4073 94.3167 49.5286 94.358 59.738 94.4284C 62.917 80.9915 64.9921 72.6247 67.4344 53.6021C 67.8826 50.1382 65.8347 48.0387 63.7229 47.4685C 62.667 47.1834 61.6862 47.3178 60.8319 47.8592C 59.9775 48.4005 59.1115 49.4369 58.644 51.5706L 58.4878 53.4068C 58.4878 54.7915 57.1513 56.0281 55.7716 55.9087C 54.3921 55.7887 53.2822 54.3402 53.5262 52.977L 53.6825 51.1409C 53.6825 50.9173 53.705 50.6932 53.76 50.4766L 54.1116 46.1402C 54.2254 44.8521 53.8726 44.208 53.2131 43.6398C 52.5529 43.0712 51.4481 42.6918 50.283 42.7022C 49.1179 42.7147 47.9888 43.0952 47.1965 43.7961C 46.4967 44.4154 45.9542 45.2753 45.8292 46.6871C 45.8155 46.9609 45.8042 47.2337 45.7905 47.5076C 45.7392 48.5511 45.6854 49.5869 45.6342 50.6329C 45.7304 52.0355 44.426 53.3687 43.0217 53.3024C 41.6175 53.2362 40.4442 51.7857 40.6726 50.3985C 40.7176 49.474 40.7826 48.5483 40.8289 47.6247C 40.8289 47.5335 40.8289 47.4424 40.8289 47.3513C 40.8139 47.3001 40.8014 47.2476 40.7901 47.1951C 40.7901 46.8206 40.8289 46.4602 40.8689 46.1012C 40.8689 46.0599 40.9026 46.0249 40.9076 45.9837C 40.9939 44.2677 41.0508 42.5476 41.142 40.8266C 41.1745 40.1345 40.9546 39.7622 40.1653 39.2248C 39.3735 38.6855 38.0301 38.2651 36.6883 38.2481C 35.3466 38.2311 34.0558 38.5833 33.2893 39.1467C 32.5229 39.71 32.0971 40.3178 32.1174 41.7252C 32.1174 41.8952 32.1049 42.0657 32.0786 42.2331L 32.0786 44.4209C 32.0786 45.7319 30.8893 46.9266 29.5782 46.9266C 28.2672 46.9266 27.075 45.7319 27.0779 44.4209L 27.0779 8.16565C 27.0779 6.6413 25.4271 5.00113 22.8977 5.00113L 22.8968 5.00083Z"/>
</defs>
</svg>
