<svg xmlns:dc="http://purl.org/dc/elements/1.1/" xmlns:cc="http://creativecommons.org/ns#" xmlns:rdf="http://www.w3.org/1999/02/22-rdf-syntax-ns#" xmlns:svg="http://www.w3.org/2000/svg" xmlns="http://www.w3.org/2000/svg" xmlns:sodipodi="http://sodipodi.sourceforge.net/DTD/sodipodi-0.dtd" xmlns:inkscape="http://www.inkscape.org/namespaces/inkscape" version="1.1" x="0px" y="0px" viewBox="0 0 100 125"><g transform="translate(0,-952.36218)"><path style="text-indent:0;text-transform:none;direction:ltr;block-progression:tb;baseline-shift:baseline;color:#000000;enable-background:accumulate;" d="m 39.293497,958.36872 c 8.0875,0 14.5528,7.02418 14.5528,15.46688 0,3.00408 -0.8331,5.80109 -2.219,8.16625 a 2.0000048,2.0000048 0 1 1 -3.451,-2.02219 c 1.0455,-1.78409 1.6704,-3.87771 1.6704,-6.14406 0,-6.42433 -4.7885,-11.4675 -10.5532,-11.4675 -5.7647,0 -10.5237,5.03788 -10.5237,11.4675 0,2.28223 0.6012,4.37101 1.6406,6.14375 a 2.0000048,2.0000048 0 1 1 -3.45,2.02312 c -1.3948,-2.37876 -2.19,-5.17823 -2.19,-8.16687 0,-8.43741 6.4356,-15.46688 14.5231,-15.46688 z" fill="#000000" fill-opacity="1" fill-rule="evenodd" stroke="none" marker="none" visibility="visible" display="inline" overflow="visible"/><path style="text-indent:0;text-transform:none;direction:ltr;block-progression:tb;baseline-shift:baseline;color:#000000;enable-background:accumulate;" d="m 39.321697,966.82466 c 3.8709,0 7.3437,2.74741 7.3437,6.53125 l 0,20.78125 c 1.1818,-0.51465 2.4652,-0.73461 3.7187,-0.71875 1.774,0.0224 3.5409,0.47511 5,1.46875 0.9902,0.67425 1.8334,1.7082 2.25,2.9375 1.1235,-0.57123 2.3532,-0.83298 3.5626,-0.84375 1.7916,-0.0159 3.5969,0.51025 5,1.71875 0.8076,0.69572 1.4225,1.65264 1.7812,2.75004 1.5932,-0.8355 3.4031,-0.9709 5.0312,-0.5313 3.5764,0.9656 6.5033,4.6604 5.9063,9.2812 l 0,0.031 c -2.0674,16.103 -3.8762,22.9136 -6.625,34.5937 -0.2079,0.8625 -1.0503,1.5283 -1.9375,1.5313 -8.8701,-0.061 -16.5128,-0.085 -25.375,-0.1563 -0.021,-0.01 -0.042,-0.02 -0.062,-0.031 -5.6214,-0.1731 -11.08,-4.7868 -15.4687,-12.4063 -4.3889,-7.6195 -7.6982,-18.4734 -8.4376,-31.9999 -0.03,-0.5634 0.1919,-1.1354 0.5938,-1.5313 1.1462,-1.12695 2.2686,-1.91258 3.5312,-2.24999 0.3947,-0.10544 0.8184,-0.1547 1.2188,-0.15625 0.8808,-0.003 1.7373,0.24821 2.4375,0.65625 1.5999,0.93234 2.5114,2.40409 3.25,3.99999 0.016,-8.49892 -0.062,-18.42468 -0.062,-29.12499 0,-3.78384 3.4796,-6.53125 7.3438,-6.53125 z m 0,4 c -2.0105,0 -3.3438,1.31195 -3.3438,2.53125 0,14.75775 0.1789,28.13789 0,38.21869 -0.045,1.7644 -3.7036,3.2178 -5.0625,-0.5937 -0.625,-1.7549 -1.2679,-3.8678 -2,-5.6562 -0.7321,-1.7885 -1.6866,-3.1326 -2.1563,-3.4063 -0.2348,-0.1368 -0.2733,-0.1481 -0.5937,-0.062 -0.2295,0.061 -0.6187,0.2572 -1.125,0.6563 0.8116,12.5378 3.9732,22.4758 7.875,29.2499 3.9965,6.9384 8.7896,10.3279 12.125,10.4375 8.2877,0.067 15.5837,0.1 23.75,0.1563 2.5429,-10.748 4.2027,-17.4404 6.1563,-32.6563 0.3585,-2.7707 -1.2796,-4.4501 -2.9688,-4.9062 -0.8446,-0.228 -1.6291,-0.1205 -2.3125,0.3125 -0.6834,0.433 -1.3761,1.262 -1.75,2.9687 l -0.125,1.4688 c 0,1.1076 -1.069,2.0967 -2.1726,2.0012 -1.1035,-0.096 -1.9913,-1.2546 -1.7961,-2.345 l 0.125,-1.4687 c 0,-0.1788 0.018,-0.3581 0.062,-0.5313 l 0.2813,-3.4687 c 0.091,-1.0303 -0.1912,-1.5455 -0.7187,-2 -0.5281,-0.4548 -1.4118,-0.7583 -2.3438,-0.75 -0.9319,0.01 -1.8351,0.3144 -2.4688,0.875 -0.5598,0.4954 -0.9937,1.1832 -1.0937,2.3125 -0.011,0.219 -0.02,0.4372 -0.031,0.6563 -0.041,0.8347 -0.084,1.6632 -0.125,2.4999 0.077,1.1219 -0.9664,2.1883 -2.0897,2.1353 -1.1232,-0.053 -2.0617,-1.2132 -1.879,-2.3228 0.036,-0.7395 0.088,-1.48 0.125,-2.2187 0,-0.073 0,-0.1459 0,-0.2187 -0.012,-0.041 -0.022,-0.083 -0.031,-0.125 0,-0.2995 0.031,-0.5878 0.063,-0.875 0,-0.033 0.027,-0.061 0.031,-0.094 0.069,-1.3726 0.1145,-2.7484 0.1875,-4.12504 0.026,-0.55357 -0.1499,-0.85141 -0.7813,-1.28125 -0.6333,-0.43134 -1.7079,-0.76767 -2.7812,-0.78125 -1.0732,-0.0136 -2.1057,0.26814 -2.7188,0.71875 -0.613,0.4506 -0.9536,0.93675 -0.9374,2.06249 0,0.136 -0.01,0.2724 -0.031,0.4063 l 0,1.75 c 0,1.0486 -0.9513,2.0043 -2,2.0043 -1.0487,0 -2.0023,-0.9557 -2,-2.0043 l 0,-29.00004 c 0,-1.2193 -1.3204,-2.53125 -3.3437,-2.53125 z" fill="#000000" fill-opacity="1" fill-rule="evenodd" stroke="none" marker="none" visibility="visible" display="inline" overflow="visible"/></g></svg>
