<svg xmlns:dc="http://purl.org/dc/elements/1.1/" xmlns:cc="http://creativecommons.org/ns#" xmlns:rdf="http://www.w3.org/1999/02/22-rdf-syntax-ns#" xmlns:svg="http://www.w3.org/2000/svg" xmlns="http://www.w3.org/2000/svg" xmlns:sodipodi="http://sodipodi.sourceforge.net/DTD/sodipodi-0.dtd" xmlns:inkscape="http://www.inkscape.org/namespaces/inkscape" version="1.1" x="0px" y="0px" viewBox="0 0 100 125"><g transform="translate(0,-952.36218)"><path style="text-indent:0;text-transform:none;direction:ltr;block-progression:tb;baseline-shift:baseline;color:#000000;enable-background:accumulate;" d="m 58.315113,970.95343 a 1.0001,1.0001 0 0 0 -0.031,0.0312 1.0001,1.0001 0 0 0 -0.5,0.28125 L 9.7217126,1019.3596 a 1.0001,1.0001 0 0 0 -0.3126,0.5938 l -1.4065,12.7188 a 1.0001,1.0001 0 0 0 1.125,1.0937 l 12.7188004,-1.4062 a 1.0001,1.0001 0 0 0 0.5937,-0.2813 l 48.0937,-48.09372 a 1.0001,1.0001 0 0 0 0,-1.40625 l -11.3124,-11.3125 a 1.0001,1.0001 0 0 0 -0.8126,-0.3125 1.0001,1.0001 0 0 0 -0.094,0 z m 0.1875,2.4375 9.9062,9.90625 -4.25,4.21875 -9.875,-9.875 4.2188,-4.25 z m -5.6562,5.65625 9.9062,9.90625 -40.2812,40.31247 -9.9376,-9.9375 40.3126,-40.28122 z m -41.5313,41.90622 9.5313,9.5313 -10.7188,1.1875 1.1875,-10.7188 z m 23.6875,10.8125 c -0.5523,0 -1,0.4477 -1,1 0,0.5523 0.4477,1 1,1 l 56,0 c 0.5523,0 1,-0.4477 1,-1 0,-0.5523 -0.4477,-1 -1,-1 l -56,0 z" fill="#000000" fill-opacity="1" stroke="none" marker="none" visibility="visible" display="inline" overflow="visible"/></g><text x="0" y="115" fill="#000000" font-size="5px" font-weight="bold" font-family="'Helvetica Neue', Helvetica, Arial-Unicode, Arial, Sans-serif">Created by iconsphere</text><text x="0" y="120" fill="#000000" font-size="5px" font-weight="bold" font-family="'Helvetica Neue', Helvetica, Arial-Unicode, Arial, Sans-serif">from the Noun Project</text></svg>