<svg width="148" height="110" viewBox="0 0 148 110" version="1.1" xmlns="http://www.w3.org/2000/svg" xmlns:xlink="http://www.w3.org/1999/xlink">
<title>Writing_icon</title>
<desc>Created using Figma</desc>
<g id="Canvas" transform="translate(-1588 -1708)">
<g id="Writing_icon">
<g id="Group">
<g id="Vector">
<use xlink:href="#path0_fill" transform="translate(1588 1708)"/>
</g>
</g>
</g>
</g>
<defs>
<path id="path0_fill" d="M 88.1019 0.00605783C 88.0834 0.0238672 88.0653 0.0420618 88.0476 0.0606669C 87.714 0.135801 87.4096 0.306993 87.1721 0.553111L 3.01914 84.761C 2.7224 85.0342 2.52907 85.4015 2.47181 85.8007L 0.00915047 108.07C -0.0178324 108.333 0.015051 108.599 0.105336 108.847C 0.195621 109.096 0.340963 109.32 0.53047 109.504C 0.719977 109.689 0.94873 109.828 1.19958 109.911C 1.45043 109.994 1.71687 110.019 1.97893 109.985L 24.2484 107.523C 24.6405 107.481 25.0068 107.307 25.2879 107.03L 109.496 22.8226C 109.82 22.4948 110.002 22.0525 110.002 21.5915C 110.002 21.1306 109.82 20.6882 109.496 20.3604L 89.6887 0.553218C 89.5081 0.360671 89.2864 0.211416 89.04 0.116665C 88.7936 0.0219145 88.529 -0.0158795 88.2659 0.00605783C 88.2111 0.00347816 88.1562 0.00347816 88.1013 0.00605783L 88.1019 0.00605783ZM 88.4302 4.2739L 105.775 21.6189L 98.3337 29.0055L 81.0434 11.7153L 88.4302 4.2739ZM 78.5267 14.1775L 95.8715 31.5225L 25.3427 102.106L 7.94288 84.7064L 78.5267 14.1775ZM 5.80904 87.5516L 22.4975 104.24L 3.72984 106.319L 5.80904 87.5516ZM 47.2838 106.483C 46.3167 106.483 45.5328 107.267 45.5328 108.234C 45.5328 109.201 46.3167 109.985 47.2838 109.985L 145.335 109.985C 146.302 109.985 147.086 109.201 147.086 108.234C 147.086 107.267 146.302 106.483 145.335 106.483L 47.2838 106.483Z"/>
</defs>
</svg>

